<?xml version="1.0" encoding="utf-8"?>
<!-- Generator: Adobe Illustrator 16.0.0, SVG Export Plug-In . SVG Version: 6.00 Build 0)  -->
<!DOCTYPE svg PUBLIC "-//W3C//DTD SVG 1.1//EN" "http://www.w3.org/Graphics/SVG/1.1/DTD/svg11.dtd">
<svg version="1.1"
	 id="svg2" xmlns:dc="http://purl.org/dc/elements/1.1/" xmlns:cc="http://creativecommons.org/ns#" xmlns:rdf="http://www.w3.org/1999/02/22-rdf-syntax-ns#" xmlns:svg="http://www.w3.org/2000/svg" xmlns:sodipodi="http://sodipodi.sourceforge.net/DTD/sodipodi-0.dtd" xmlns:inkscape="http://www.inkscape.org/namespaces/inkscape" sodipodi:docname="Novo documento 1" inkscape:version="0.48.0 r9654"
	 xmlns="http://www.w3.org/2000/svg" xmlns:xlink="http://www.w3.org/1999/xlink" x="0px" y="0px" width="659px" height="277px"
	 viewBox="28.138 304.445 659 277" enable-background="new 28.138 304.445 659 277" xml:space="preserve">
<sodipodi:namedview  showgrid="false" inkscape:cy="520" inkscape:cx="350" inkscape:zoom="0.71230469" borderopacity="1.0" bordercolor="#666666" pagecolor="#ffffff" id="base" inkscape:window-maximized="1" inkscape:window-y="-8" inkscape:current-layer="layer1" inkscape:document-units="px" inkscape:pageopacity="0.0" inkscape:window-x="-8" inkscape:window-height="720" inkscape:window-width="1280" inkscape:pageshadow="2">
	</sodipodi:namedview>
<g id="layer1" inkscape:label="Camada 1" inkscape:groupmode="layer">
	<path id="path72" inkscape:connector-curvature="0" fill="#7CB124" d="M297.51,377.235c-1.634-91.409-259.464-92.06-263.236,4.907
		C31.875,443.806,86.52,484.41,87.687,538.847c1.065,49.668,163.689,45.781,160.311-3.113
		C243.029,463.822,292.293,431.972,297.51,377.235"/>
	<g id="g74" transform="matrix(1.25,0,0,-1.25,-168.30596,800.20705)">
		<g id="g76">
			<g id="g82">
				
					<linearGradient id="path92_1_" gradientUnits="userSpaceOnUse" x1="-37.0548" y1="-3.7027" x2="-36.1557" y2="-3.7027" gradientTransform="matrix(-128.5225 -169.6497 170.3135 -129.0254 -3816.4045 -6488.6748)">
					<stop  offset="0" style="stop-color:#7CB124"/>
					<stop  offset="0.59" style="stop-color:#7CB124"/>
					<stop  offset="1" style="stop-color:#AAC83B"/>
				</linearGradient>
				<path id="path92" inkscape:connector-curvature="0" fill="url(#path92_1_)" d="M268.993,247.063
					c34.098,0,61.75-14.613,61.75-32.633c0-18.019-27.652-32.631-61.75-32.631s-61.75,14.613-61.75,32.631
					C207.243,232.45,234.895,247.063,268.993,247.063"/>
			</g>
		</g>
	</g>
	<g id="g94" transform="matrix(1.25,0,0,-1.25,-168.30596,800.20705)">
		<g id="g96">
			<g id="g102">
				
					<linearGradient id="path122_1_" gradientUnits="userSpaceOnUse" x1="-35.6763" y1="-4.1879" x2="-34.6763" y2="-4.1879" gradientTransform="matrix(0 128.8382 -247.7579 0 -769.4119 4885.6274)">
					<stop  offset="0" style="stop-color:#7CB124"/>
					<stop  offset="0.37" style="stop-color:#7CB124"/>
					<stop  offset="0.43" style="stop-color:#7CB124"/>
					<stop  offset="0.49" style="stop-color:#7CB126"/>
					<stop  offset="0.49" style="stop-color:#7CB126"/>
					<stop  offset="0.55" style="stop-color:#7EB225"/>
					<stop  offset="0.61" style="stop-color:#83B528"/>
					<stop  offset="1" style="stop-color:#BADC41"/>
				</linearGradient>
				<path id="path122" inkscape:connector-curvature="0" fill="url(#path122_1_)" d="M268.001,289.13
					c54.723,0,99.101,23.078,99.101,51.536c0,28.457-44.378,51.534-99.101,51.534S168.9,369.123,168.9,340.666
					C168.9,312.208,213.278,289.13,268.001,289.13"/>
			</g>
		</g>
	</g>
	<path id="path124" inkscape:connector-curvature="0" fill="#FFFFFF" d="M158.632,386.875h11.09c12.199,0,22.18,9.396,22.18,20.879
		V551.06c0,11.482-9.98,20.879-22.18,20.879h-11.09c-12.199,0-22.18-9.396-22.18-20.879V407.754
		C136.453,396.271,146.434,386.875,158.632,386.875"/>
	<path id="path126" inkscape:connector-curvature="0" fill="#FFFFFF" d="M164.177,314.125c17.032,0,30.844,14.471,30.844,32.313
		c0,17.842-13.812,32.313-30.844,32.313c-17.031,0-30.844-14.471-30.844-32.313C133.333,328.596,147.146,314.125,164.177,314.125"/>
	<path id="path128" inkscape:connector-curvature="0" fill="#FFFFFF" d="M361.013,513.697h5.08v22.164
		c0,3.848-0.438,6.91-1.313,9.18c-0.875,2.268-2.447,4.107-4.724,5.527c-2.276,1.428-5.26,2.135-8.956,2.135
		c-3.59,0-6.537-0.617-8.814-1.857c-2.286-1.232-3.92-3.027-4.894-5.377c-0.981-2.348-1.464-5.545-1.464-9.607v-22.164h5.072v22.137
		c0,3.33,0.313,5.787,0.928,7.357c0.617,1.58,1.688,2.795,3.188,3.652c1.509,0.857,3.357,1.287,5.536,1.287
		c3.732,0,6.394-0.85,7.983-2.545c1.581-1.688,2.376-4.939,2.376-9.752V513.697L361.013,513.697z M443.833,552.05v-38.354h25.879
		v4.527h-20.798v11.875h17.993v4.529h-17.993v17.422H443.833L443.833,552.05z M545.121,552.05v-38.354h14.395
		c2.93,0,5.277,0.393,7.046,1.16c1.777,0.777,3.161,1.975,4.161,3.59c1,1.607,1.509,3.295,1.509,5.063
		c0,1.635-0.446,3.18-1.339,4.627c-0.884,1.445-2.232,2.615-4.027,3.508c2.321,0.68,4.099,1.84,5.349,3.475
		c1.25,1.643,1.875,3.58,1.875,5.814c0,1.793-0.384,3.463-1.143,5.008s-1.696,2.734-2.813,3.572
		c-1.116,0.84-2.518,1.465-4.196,1.893c-1.679,0.43-3.742,0.645-6.188,0.645H545.121L545.121,552.05z M550.202,529.814h8.295
		c2.242,0,3.858-0.15,4.841-0.445c1.286-0.385,2.259-1.02,2.911-1.912c0.651-0.893,0.982-2.008,0.982-3.348
		c0-1.27-0.304-2.395-0.911-3.357c-0.616-0.975-1.491-1.635-2.616-1.992c-1.134-0.357-3.081-0.535-5.841-0.535h-7.661V529.814
		L550.202,529.814z M550.202,547.523h9.546c1.644,0,2.795-0.063,3.456-0.18c1.169-0.213,2.143-0.563,2.929-1.053
		c0.786-0.482,1.429-1.197,1.938-2.125c0.5-0.939,0.759-2.01,0.759-3.232c0-1.43-0.365-2.672-1.098-3.734
		c-0.732-1.053-1.75-1.795-3.055-2.223c-1.295-0.42-3.17-0.635-5.607-0.635h-8.867V547.523L550.202,547.523z M645.891,552.05
		l14.734-38.354h5.465l15.699,38.354h-5.787l-4.474-11.619H655.49l-4.206,11.619H645.891z M656.955,536.298h13.011l-4.01-10.617
		c-1.215-3.225-2.125-5.877-2.715-7.957c-0.491,2.465-1.179,4.902-2.072,7.33L656.955,536.298z"/>
	<path id="path130" inkscape:connector-curvature="0" fill="#FFFFFF" d="M351.294,483.16H336.06v-85.743h15.234V483.16z
		 M353.243,372.262c0,3.011-0.886,5.433-2.657,7.292c-1.771,1.86-4.134,2.806-7.087,2.806c-2.775,0-5.049-0.945-6.85-2.835
		s-2.716-4.311-2.716-7.263c0-2.895,0.915-5.315,2.745-7.234c1.831-1.919,4.104-2.864,6.82-2.864c2.895,0,5.256,0.945,7.058,2.835
		C352.357,366.888,353.243,369.309,353.243,372.262L353.243,372.262z M373.616,483.16v-62.889c0-6.083-0.236-13.7-0.709-22.854
		h13.465l0.707,12.224h0.355c5.314-9.212,13.346-13.817,24.093-13.817c7.559,0,13.7,2.834,18.424,8.532
		c4.725,5.699,7.086,13.907,7.086,24.595v54.209h-15.235v-52.082c0-15-5.195-22.5-15.59-22.5c-4.9,0-9.005,2.037-12.341,6.111
		c-3.337,4.075-5.02,9.361-5.02,15.855v52.615H373.616L373.616,483.16z M476.721,483.16h-15.235v-74.227h-11.338v-11.516h11.338
		v-4.606c0-8.03,1.211-14.674,3.602-19.929c2.392-5.256,5.729-9.153,10.039-11.693c4.311-2.539,9.094-3.809,14.35-3.809
		c4.606,0,8.681,0.768,12.224,2.304l-2.126,11.691c-2.539-1.063-5.433-1.594-8.681-1.594c-9.448,0-14.172,7.559-14.172,22.676v4.96
		h18.069v11.516h-18.069V483.16L476.721,483.16z M570.081,439.757c0,9.389-1.506,17.449-4.547,24.211s-7.352,11.93-12.903,15.471
		c-5.551,3.545-11.604,5.316-18.158,5.316c-10.393,0-18.808-3.957-25.244-11.84c-6.438-7.885-9.655-18.631-9.655-32.271
		c0-14.35,3.425-25.422,10.246-33.188c6.819-7.766,15.383-11.633,25.717-11.633c10.393,0,18.748,3.927,25.067,11.81
		C566.922,415.517,570.081,426.234,570.081,439.757L570.081,439.757z M514.809,440.289c0,9.33,1.83,17.125,5.462,23.385
		s8.415,9.389,14.38,9.389c5.964,0,10.776-3.188,14.408-9.537c3.632-6.348,5.433-14.143,5.433-23.414
		c0-9.152-1.712-16.889-5.167-23.177c-3.454-6.289-8.297-9.419-14.497-9.419c-6.318,0-11.22,3.101-14.733,9.301
		C516.58,423.017,514.809,430.839,514.809,440.289L514.809,440.289z"/>
	<path id="path132" inkscape:connector-curvature="0" fill="#FFFFFF" d="M586.573,517.72l-1.771-12.047
		c4.665-0.531,8.474-1.801,11.427-3.809c2.952-2.008,5.019-5.195,6.17-9.537c1.152-4.34,1.713-11.869,1.713-22.615v-74.229h15.235
		v79.188c0,12.992-1.594,22.264-4.813,27.844s-7.44,9.477-12.666,11.691C596.642,516.421,591.533,517.603,586.573,517.72
		L586.573,517.72z M621.296,370.328c0,2.952-0.886,5.373-2.688,7.263c-1.801,1.89-4.163,2.835-7.057,2.835
		c-2.775,0-5.049-0.975-6.85-2.894c-1.802-1.92-2.717-4.312-2.717-7.204c0-2.953,0.915-5.374,2.746-7.264s4.163-2.835,6.998-2.835
		c2.834,0,5.138,0.945,6.908,2.835C620.41,364.954,621.296,367.375,621.296,370.328L621.296,370.328z M641.137,481.226v-61.118
		c0-6.909-0.236-15.117-0.708-24.625h13.464l0.708,15.059h0.532c1.771-5.138,4.576-9.212,8.414-12.194
		c3.839-2.982,7.942-4.458,12.313-4.458l3.721,0.177v15.059c-0.65-0.236-2.009-0.354-4.075-0.354c-5.256,0-9.743,2.185-13.493,6.555
		s-5.64,10.866-5.64,19.487v46.414H641.137L641.137,481.226z"/>
</g>
</svg>
