<svg class="logo-svg" xmlns="http://www.w3.org/2000/svg" viewBox="0 0 283.649 95.002"><g fill-rule="evenodd" clip-rule="evenodd"><path fill="#B0CC49" d="M30.975 75.672l9.151-1.73 2.818-10.248c3.593-8.184 17.001-13.412 17.999-29.99C62.126 14.026 49.303.54 30.028 1.461 13.331 2.569-.169 15.241 1.465 33.385c2.103 23.35 21.846 20.318 20.291 42.744l9.219-.457zm-.073.881l9.684-2.01 2.624-9.879c3.729-8.498 17.651-13.926 18.687-31.141C63.126 13.091 49.812-.911 29.797.044 12.459 1.198-1.557 14.352.139 33.194c2.184 24.244 22.592 20.305 20.978 43.59l9.785-.231z"/><path fill="#B0CC49" d="M20.571 83.721c1.85 2.889 3.918 5.436 7.864 7.846 5.162-1.74 6.484-1.781 12.244-5.182l.012-11.027-9.573 2.299-10.011-.238-.536 6.302z"/><path fill="#7C8C3C" d="M30.509 31.323l.87.881c.089-.063.15-.15.246-.223l.254-.227c.131-.131.635-.492.804-.592.705-.416 1.481-.816 2.308-.984 1.399-.285 2.142-.285 3.539 0 .919.188 2.093.771 2.848 1.361l.759.658.875-.865v-.012c-.163-.227-.915-.818-1.158-.986-.941-.65-1.838-1.078-2.955-1.357-.612-.154-1.245-.24-1.88-.26h-.529c-.624.02-1.247.104-1.851.254-1.09.273-1.685.574-2.637 1.137-.121.072-.209.141-.322.219-.209.143-.555.414-.76.596-.105.093-.347.306-.411.4"/><path fill="#7C8C3C" d="M32.259 33.094l.87.859c.086-.027.123-.092.177-.146.534-.543 1.542-1.063 2.285-1.215.176-.037.357-.076.548-.1l.6-.047.586.041c.643.076 1.393.297 1.938.627.191.115.402.234.577.381.104.086.249.188.354.291.06.059.104.117.172.162.086-.023.37-.34.453-.422.111-.111.368-.344.442-.453l-.412-.381c-.069-.063-.145-.113-.223-.172l-.228-.168c-.053-.035-.057-.045-.108-.08-.252-.17-.628-.373-.897-.498-1.336-.625-3.232-.793-4.684-.23-.47.182-.446.164-.845.363-.323.16-.456.248-.742.445-.143.098-.325.229-.451.34l-.209.188c-.072.073-.148.133-.203.215m1.772 1.729c.025.094.821.859.875.896.267-.232.341-.326.716-.514.832-.418 1.915-.326 2.654.229.237.178.146.117.339.285.057-.039.851-.805.875-.896-.019-.025-.216-.203-.249-.229-.091-.07-.18-.139-.271-.209-.093-.07-.192-.125-.293-.186-1.114-.672-2.701-.682-3.818-.008-.106.064-.196.111-.295.186-.11.082-.465.352-.533.446m1.729 2.75c0 .58.469.969.961 1.002h.134c.253-.018.502-.133.686-.367.025-.033.036-.039.057-.068.038-.051.058-.102.087-.162.06-.121.086-.26.086-.404 0-1.09-1.488-1.373-1.92-.41-.039.083-.091.297-.091.409"/><path fill="#808082" d="M20.545 26.377c-.032 1.146-.009 1.104.601 1.66l.571.543c.279.258.212.488.212.926-.389.133-.642.377-.616.814.022.391.343.715.755.721.897.014 1.117-1.291.164-1.531.016-.465.004-.951.003-1.418-.001-.668.153-.561.483-.926.216-.24.492-.422.719-.695.284-.342.138-.748.19-1.223l.303-.002-.001-.932-.919.004-.004.928h.303c.024.238.067.83-.103 1.021-.114.127-.913.883-.97.922l-.002-3.563.366-.004-.509-.91c-.063.057-.496.814-.525.908l.364.004-.003 4.729c-.064-.086-.298-.27-.393-.355l-.384-.377c-.127-.111-.28-.199-.302-.459-.02-.24.003-.535-.004-.787.503-.213.349-.883-.137-.896-.499-.014-.679.682-.162.898"/><path fill="#58595B" d="M26.181 44.612c-1.383.598-2.177-1.393-.891-1.947 1.038-.447 1.953.857 1.24 1.662-.043.048-.3.265-.349.285m-1.722 2.709l-.198-.461c-.334-.773-.732-2.33-.901-3.156-.11-.539-.237-.895.134-1.363 1.148-1.457 2.402-1.053 2.632-1.15l3.762-1.623c.058-.025.275-.34.397-.443.577-.492 1.481-.771 2.197-.646.58.102.656.242 1.033.789 1.072 1.553 1.327 2.031 2.06 3.73.187.432.285 1.297-.083 1.455-.708.305-.851.41-1.676.297-.365-.051-.689-.227-.965-.336-.585-.234-1.64-1.107-1.824-1.027l-2.992 1.291c-.141.061-.186.752-.241 1.002-.11.498-.204 1.02-.416 1.5-.376.85-.782 1.109-1.548 1.439-.588.253-1.071-.632-1.371-1.298zm6.509-5.836c-.615-1.426 1.309-2.256 1.924-.83.126.293.061.547-.036.766-.383.861-1.58.779-1.888.064z"/><path fill="#58595B" d="M25.164 43.075l.185.428c-.637.273-.588.164-.391.623.079.184.22.059.611-.111.274.637.166.588.625.391.209-.09-.046-.498-.154-.594.602-.258.645-.15.433-.643-.089-.205-.458.047-.654.131.006-.145-.115-.609-.325-.52-.276.119-.402.129-.33.295m5.919-2.147c.052.119.11.164.201.207.305.145.673-.063.465-.545-.149-.343-.837-.06-.666.338m.917.364c.219.508.861.115.684-.295-.162-.377-.904-.217-.684.295"/><path fill="#6C6D70" d="M10.057 44.295l-3.498.004 3.496-.004h.002zm-1.332-7.396l-.868-.006-.001-1.742-.436-.002-.001-.436h-.87l.002.436c.007.08.01.172.01.266v.006c0 .164-.008.334-.008.479v.712-.012.024c0 .111.008.539.008.906v.025c0 .217-.003.41-.012.498v1.893l-.361.004c-.078-.002-.065-.016-.074-.025l-.002-.415h-.437l.001-.438h-.859l-.003.863.435.006v.428h.295c.061 0 .102-.01.137.018l-.003.863.428-.002c.019.025.006-.033.016.039.002.01.001.049.001.061v.77h.427c.029.127-.012.682.012.877h.421l.005.867 2.67.006h.813l.001-.865.018-.008c.051-.012-.032 0 .021-.004h.17c.072 0 .154.004.225-.002l.004-1.301h.426l.003-3.047h-.39c-.058-.006-.014.002-.033-.012-.006-.01-.009.002-.012-.045v-.377h-.431l-.001 1.301h-.435l.003-1.74v-.012l-.004-.426-1.299-.002c-.029.115-.008.701-.008.865 0 .293-.001.586-.001.879l.428-.002c.013-.018.013.008.013-.049V37.77l.871-.002.863-.006c.021.033.016.059.015.104v.109c0 .072.001.146 0 .219l.432.006.001.428c.095 0 .36-.018.431.012.021.219.003.531.003.762l.001 1.924v.195s.014.152-.016.168h-.418c.003.166.021 1.238-.01 1.313h-.436l.002 1.305c-.15.016-.385.004-.545.004-.453 0-3.733.018-3.818-.008V43c-.056 0-.408.016-.428-.016l-.004-.85c-.109-.014-.331.004-.4-.004-.012 0-.01.004-.037-.012l.002-.867h-.437l.001-.863-.437-.006c-.02-.072-.008-.336-.007-.43-.095 0-.358.014-.435-.008l.004-1.307c.066-.02.953-.008 1.164-.008.053 0 .113-.008.146.012l-.002.432.438-.002-.001-1.373v-.006l.001-2.537h.436v-.006h.871l-.002 3.922.439.004v-1.744l.869-.002-.001-.43z"/><path fill="#BDD365" d="M37.474 13.989c.22.045 4.48.021 4.67.012l.001-7.33-4.664-.004-.007 7.322zm1.849-7.688h.975c.105 0 .16-.016.156-.129-.128-.102-.855-.055-1.131-.055-.247.001-.236.184 0 .184zm.135 7.871c-.296.08-.322.42-.112.563.116.078.706.086.855.035.233-.076.279-.414.076-.551-.11-.074-.663-.088-.819-.047zM37.784 5.69c-.708.127-.628.74-.628 1.199 0 2.416-.03 4.965 0 7.357.008.664.412.801 1.047.801.545-.002 3.429.035 3.705-.012.69-.119.607-.803.607-1.205 0-2.41.033-4.977.001-7.357-.011-.756-.553-.795-1.051-.795-.53 0-3.419-.035-3.681.012z"/><path fill="#565658" d="M17.245 50.36c-.074.021-.228.189-.279.244-.285.301-.439.766-.419 1.211.022.469.22.813.505 1.107.047.049.238.23.305.227.066.082.244.137.334.174.104.043.304.072.422.08l.187.004c.248-.023.542-.066.755-.211l.041-.031c.229-.109.445-.348.584-.57.155-.25.256-.576.243-.938-.018-.463-.239-.922-.555-1.191-.082-.068-.235-.193-.351-.242-.062-.045-.3-.129-.36-.141l-.009.01c-.023-.021-.046-.027-.083-.035-.331-.061-.769-.027-1.045.125-.057.031-.092.051-.143.078-.044.023-.103.064-.132.099m.778 1.264c-.017.195-.313.914-.341 1.133h1.071l-.348-1.115c.068-.07.287-.178.229-.477-.034-.178-.192-.334-.397-.342-.501-.022-.588.654-.214.801zm3.891.216c-.379.107-.23.721.165.607.353-.103.228-.72-.165-.607zm-.026-1.127c-.378.156-.154.742.219.586.336-.138.163-.744-.219-.586zm.01 2.243c-.366.123-.21.721.176.604.138-.041.246-.203.2-.391-.034-.143-.188-.278-.376-.213zm-2.315-8.713l-.528-.262c-.179-.01-.344-.121-.817-.133-1.359-.033-2.47.791-2.766 2.072-.116.506-.066 1.336-.066 1.893l.905.006c.002-.408 0-.814.001-1.221 0-1.996 2.501-2.461 3.383-.971.167.283.243.59.243.986-.001.189-.012 1.107.005 1.215l.897.006c.021-.162.005-.422.005-.594v-.611c0-.729-.18-1.279-.619-1.816-.077-.096-.206-.234-.302-.311l-.341-.259zm-5.278 9.865c.034.016.021.008.036.037.047.037.289.291.32.346 1.344.027 2.717 0 4.063 0h2.782c.121.002.115-.01.18-.076.078-.08.162-.172.242-.26.063-.07.065-.059.064-.188-.001-.082.002-.176-.004-.258-.15-.049-.218-.047-.302-.145-.191-.221-.191-.684.305-.762l-.004-.215c-.242-.035-.415-.172-.417-.445-.003-.26.168-.428.419-.449l-.003-.234c-.559-.057-.563-.826-.001-.895.027-.174.006-1.225.006-1.547 0-.498.063-.318-.306-.715-.153-.166-.066-.131-.369-.131h-3.064c-.669 0-1.364-.018-2.026-.002-.472.01-1.027.004-1.51.002-.151-.002-.107.023-.291.207-.041.041-.071.08-.11.125-.05.057-.081.059-.082.166-.013 1.654.001 3.352.001 5.014.001.491.005.273.071.425z"/><path fill="#B0CC49" d="M52.452 30.411c.575 1 5.065.971 5.673 0-.539-.946-5.15-1.016-5.673 0m6.34.646c.106-1.557-1.053-1.848-2.521-1.955-1.238-.09-2.84-.037-3.794.479-.626.34-.658.67-.658 1.568l-.022 4.439c-.006.848-.15 1.631.525 1.857 1.104.867 4.541.805 5.828.119.916-.488.649-1.299.644-2.9-.006-1.154-.074-2.476-.002-3.607zm-3.238 2.293c-1.621-.043-1.844-.154-3.121-.586l-.003-1.492c2.546.582 2.931.809 5.721.004l-.006 1.488c-.841.35-1.447.606-2.591.586zm.559 2.065c-1.708.039-2.241.021-3.66-.549l-.018-1.607c.97.264 1.455.535 2.657.506.583-.029 1.085-.025 1.643-.115.591-.096.929-.277 1.427-.393l-.014 1.611c-.66.277-1.147.519-2.035.547zm-3.28 1.697c-.017-.018-.047-.064-.056-.047-.008.016-.043-.037-.054-.047-.084-.08-.072-.041-.15-.146-.273-.369-.132-1.033-.133-1.5 1.01.332 1.678.557 2.873.52 1.352-.127 1.635-.162 2.844-.525-.002.482.065 1.025-.073 1.48-.637.455-1.667.592-2.553.615-1.253.035-1.77-.26-2.698-.35z"/><path fill="#424143" d="M10.952 20.522l10.531.041.008-6.768-10.555.104.016 6.623zm3.075 2.488c.635.383 3.818.367 4.389 0-.414-.592-.189-.236-1.177-.404l.015-1.857c-1.047-.004-1.022-.063-2.062.082l.011 1.568c-.05.037-.125.063-.168.082-.803.359-.741.178-1.008.529zm-2.607-8.718l9.562.02.016 5.734-9.613-.008.035-5.746z"/><path fill="#A5A7A9" d="M43.365 22.407c-1.688.576-2.58 2.537-1.314 4.17.873 1.125 3.003.994 4.899.936v-2.809h-1.037l2.073-2.861 2.074 2.861h-1.036v2.82c1.79.066 3.893.156 4.777-.809 1.404-1.531.603-3.697-1.151-4.307.026-1.098-.262-1.699-.886-2.133-1.024-.713-1.636-.258-2.596.025-.391-1.211-2.04-2.119-3.774-1.58-.643.201-1.281.777-1.606 1.258-.522.772-.447 1.435-.423 2.429"/><path fill="#B0CC49" d="M18.209 11.53c.387 0 .7.314.7.701 0 .385-.313.699-.7.699s-.7-.314-.7-.699c0-.387.314-.701.7-.701m-.866-1.506c.028.023.075.014.092.059.036.096.79.275.94.336.633.248 1.308.813 1.611 1.426l.429 1.094.721-.023c-.081-1.99-1.794-3.43-3.792-3.59l-.001.698zm0-3.029v.672c3.028.047 5.015 2.299 5.203 5.271l1.111-.02c-.072-3.805-2.494-6.275-6.315-6.355l.001.432z"/><path fill="#6C6D70" d="M47.077 10.198c-.305.025-.615.09-.891.174-.145.045-.271.092-.405.148-.129.053-.25.127-.387.17-.078.117-1.659.756-1.565 2.664.05.389.188.754.365 1.031.243.381.266.348.478.58l.181.168c.286.148.344.305.984.566.456.186.755.207 1.258.303-.054.621-.367 1.008-.807 1.225-.374.184-.218.486.066.5.58.025 1.13-.146 1.586-.457.106-.072.195-.146.275-.229.073-.074.215-.164.203-.32-.01-.131-.128-.24-.281-.219-.164.021-.485.494-.936.598.131-.26.246-.334.335-.74.261-1.188-.31-.631-1.535-1.115-.125-.051-.26-.137-.37-.17-1.176-.674-1.806-1.922-.894-3.195.154-.215.681-.693.892-.729.042-.053.079-.064.138-.094s.087-.043.147-.068c.908-.363 1.557-.383 2.525-.209.625.107 1.323.561 1.617.867.334.35.368.646.601.648.182 0 .299-.178.219-.361-.229-.525-.991-1.146-1.66-1.418-.721-.293-1.3-.348-2.139-.318m2.309 2.771c-.146.086-.33.143-.483.24-.146.092-.316.221-.421.324-.198.197-.462.561-.515.977-.19.863.519 1.637 1.293 1.971.71.309.523.008.73.375.504.895 1.706 1.049 1.783.762.075-.281-.596-.221-.673-.947.099-.059 1.746-.324 1.892-1.803.006-.266-.029-.523-.129-.742-.081-.178-.23-.412-.33-.51-.259-.254-.568-.514-1.01-.646-.309-.119-.681-.184-1.06-.184-.451.002-.686.093-1.077.183z"/><path fill="#B0CC49" d="M37.663 25.846l.049-.066c.078-.414.108-.668.12-1.111.01-.35.022-.768.048-1.121.012-.328-.042-.289.243-.395.146-.053.343-.137.464-.162.007-.158.023-.387-.02-.543-.046-.166-1.551-.275-1.635-.264-.172-.104-2.87-.045-3.318-.045-.479-.006-.704-.031-1.008.25-.101-.1-.087-.232-.269-.309-.138-.057-.369-.035-.528-.035-.756-.002-.527.125-.722.367-.32-.326-.816-.273-1.372-.273-1.74 0-2.93-.08-4.664.244l.001.598.688.268.038.896c.024.393.003 1.006.073 1.357.039.191.111.369.21.508.106.15.223.238.383.355.6.301.948.219 1.684.219 1.227 0 2.484.26 3.104-.727.399-.635.279-.818.349-1.6l.472-.014c.07.426-.101 1.406.707 2 .295.217.571.34 1.034.342.454 0 .911.004 1.365 0 .382-.002 1.244.045 1.563-.033.443-.104.8-.362.941-.706m-.862-3.013c.328.131.433.324.422.752l-.003.904c-.002.102.002.211-.045.289.029.158-.018.227-.011.365-.209.221-.134.857-1.278.844-.311-.002-1.879.014-2.017-.07-.461.109-.803-.121-.958-.367-.221-.348-.168-.688-.168-1.135 0-.299-.049-1.059.062-1.279.164-.33.554-.314.97-.32l3.026.017zm-9.978.015c.297-.094 3.491-.072 3.739.035.468.203.341.893.341 1.568-.001 1.668-.51 1.502-2.27 1.52-1.171.012-2.205.316-2.203-1.629.001-.621-.164-1.32.393-1.494zm6.072-4.135c.068-.018.062-.035.125-.125.052-.072.054-.098.118-.143l.392-.682c.127-.223.22-.523.336-.705l1.203 1.283c.067.078.02.002.068.1l.134.092c.704.615.92.842 1.754 1.422.117.082.195.102.268.219.122.023.566.33.695.406l.694.365c.078-.002.079-.438.081-.521-.005-.262-.001-.523-.019-.779-.017-.232-.081-.475-.063-.693-.063-.072-.214-.828-.391-1.234l-.551-1.049-.125-.119c-.043-.053-.038-.057-.075-.104l-.569-.621c-.12-.111-.277-.238-.436-.359-.129-.098-.346-.221-.451-.322-.229-.072-.646-.346-.954-.473-.39-.16-.638-.242-1.052-.357-.771-.211-1.605-.332-2.427-.377l-.012-.027c-.412.002-1.376-.23-1.718-.563-.056-.055-.088-.143-.164-.182-.036.42-.064.719-.051 1.146-.205.125-1.645.477-2.521 1.326-.319.195-.77.717-1.015 1.047-.571.773-1.063 1.916-1.206 2.906-.061.416-.211 1.555-.149 1.932.413-.035 1.123-.242 1.542-.355.517-.143 1-.301 1.483-.469.646-.227 1.429-.555 2.05-.871.183-.094.496-.211.616-.373.177-.021.19-.115.365-.164.133.336.336.705.499 1.01.414-.188 1.432-1.43 1.477-1.461.031-.089.003-.04.049-.126z"/><path fill="#BDD365" d="M17.262 29.704c-.771.402-.172 1.508.556 1.148.745-.367.23-1.56-.556-1.148m1.914.013c-.167.098-.262.125-.328.326-.2.605.411 1.027.867.814.8-.374.196-1.571-.539-1.14zm-1.963 2.649c-.312-.342-3.81-1.818-4.115-2.125.306-.252 3.813-1.816 4.11-2.125-.247-.746-1.231-1.646-1.994-2.023-1.009-.498-2.158-.713-3.383-.373-4.694 1.301-4.555 7.92.079 9.074 1.64.408 3.365-.115 4.477-1.24.234-.237.682-.804.826-1.188z"/><path fill="#B5B6B8" d="M44.741 30.551l.377.002.012-.373.344-.002.003.375h.378l.007-1.133-.388-.004v.371h-.345v-.371l-.388.002v1.133zm.775 3.994l2.602.004-.086.967c-.055.025-.775.225-.838.227-.104.002-.671-.184-.835-.219l-.062-.619-.748-.006.104 1.188c.049.027 1.452.422 1.528.426.07.004 1.332-.365 1.543-.414l.21-2.289H46.21l-.081-.771h2.876l.065-.74h-3.758l.204 2.246zm-.777 2.596c.349.078 2.354.67 2.455.668.087-.002 2.408-.654 2.445-.68l.555-6.084h-6.002l.547 6.096zm1.283-7.348l.336.002v.752l.387.008v-.752l.324-.008.011-.059-.002-.32H46.02l.002.377zm2.697.76h.926l-.004-.379h-.539v-.758h-.385l.002 1.137zm-1.477 0h.379v-.541c.035.055.087.119.127.184.034.053.092.164.138.193.092-.086.169-.273.26-.373l.001.537h.382l.002-1.137-.407.002c-.035.066-.197.344-.237.379-.045-.051-.207-.318-.234-.379l-.409-.002v1.137z"/><path fill="#A5A7A9" d="M25.396 59.817h-.005.005zm1.127.164c.027-.002.049-.004.067-.004.004.002-.007 0-.067.004zm-1.32-.188l-.002.041-.916.371-1.018.426c-.127.059-.068.008-.069.191l.063.668 1.935.018 1.047.002-.097 1.135-.845.24-.112.012-.957-.25-.066-.68h-.86l.121 1.336 1.779.49 1.719-.479c.098-.262.233-2.232.255-2.645l-1.898-.002.451-.211.791-.322c.271-.143.568-.188.729-.361.066-.076.076-.699.079-.818h-2.139l-2.162.002.078.818 2.094.018zm1.391-3.322l-.413.008-.001.42 1.067-.002c0-.457.035-.383-.176-.586-.071-.066-.157-.182-.229-.236l.405-.016v-.457H26.18c0 .617-.055.397.414.869zm-1.938-.525c0 .184.316.451.405.518l-.405.018v.418h1.029c0-.316.032-.518-.367-.824l.367-.014v-.459h-1.029v.343zm-1.525.953l1.067-.002-.001-.418h-.609v-.42h.609l.001-.457h-1.067v1.297zm-.749 7.592c.175.08 2.657.775 2.805.773.101 0 2.665-.715 2.813-.783l.619-6.973H21.76l.622 6.983zm18.1-21.487c-.004 1.291-.001 2.584-.001 3.875 0 .375-.075 1.637.063 1.844.069.105.135.182.208.275.838 1.076.778.881 2.521.881.656 0 1.313.01 1.97.016.514.004 1.454.094 1.738-.191.248-.252.268-.635-.108-.957-.092-.078-.166-.17-.243-.24.408-.01 1.009.135 1.365-.482.133-.229.162-.551.055-.816-.107-.264-.206-.273-.322-.396-.101-.104-.075-.068-.129-.195.363.021.647.045.944-.137.559-.342.608-1.049.218-1.469-.195-.209-.528-.258-.702-.424.602-.193 1.009-.283 1.197-.848.226-.676-.226-1.17-.646-1.35-.421-.178-3.411-.109-4.099-.092-.005-1.074.247-3.613-.726-4.371-.489-.383-1.023-.084-1.113.314-.101.445.151 1.197-.577 2.877-.203.469-.386.736-.642 1.088-.062.084-.345.387-.43.453-.153.121-.343.211-.541.345m-1.096 5.838c-.474.125-.307.809.18.689.413-.101.277-.81-.18-.689zm-2.626-6.636v8.01h3.72l.002-1.025c.19.18.325.447.519.605.47.387.49.27.801.42h4.919c.462-.291.963-.367.651-1.406.431-.082.745-.338.915-.654.255-.475.147-.797-.02-1.23 1.052-.26 1.467-1.412.592-2.256.43-.455.332-.039.732-.928l.033-.061v-.557c-.006-.01-.013-.023-.017-.031-.161-.338-.186-.559-.611-.852-.409-.283-.668-.26-1.222-.258-.965.006-1.967.021-2.929-.002.035-1.068.087-2.947-.503-3.889-.301-.48-.519-.49-.82-.66h-.412c-.414.238-.815.289-.767 1.207.054 1.025-.562 2.844-1.324 3.574-.119.115-.345.389-.538.396l.003-.404H36.76z"/><path fill="#67686A" d="M27.524 12.145h.362c.033-.012.297-.018.362-.023.349-.029.694-.078 1.028-.162.408-.1.816-.24 1.163-.412.383-.188.673-.365.983-.592.394-.285.692-.592 1.011-.951.682-.771 1.205-1.912 1.407-2.934.101-.508.118-.926.113-1.461.017-.033.041-.043.072-.064.344-.258.647-.57.903-.914.04-.053.077-.117.119-.162v-.009c-.069.014-.204.08-.285.109-.212.076-.769.238-.959.225.229-.133.425-.322.567-.5.116-.143.33-.471.378-.701-.119.035-.502.324-1.292.504-.121.027-.092.027-.161-.041-.161-.158-.355-.299-.598-.418-.416-.203-.727-.186-.8-.213h-.321c-.04.018-.197.029-.26.041-1.118.225-1.878 1.258-1.757 2.398.01.09.032.178.039.26-1.009-.041-1.915-.35-2.669-.752-.467-.25-.876-.557-1.237-.891-.213-.195-.33-.316-.523-.539-.02-.023-.031-.037-.049-.057l-.055-.057c-.058.121-.117.225-.166.363-.285.797-.072 1.766.545 2.326.052.045.08.076.138.123l.132.102c.014.014.004.002.015.018-.18 0-.374-.041-.535-.088-.08-.023-.152-.051-.228-.082-.062-.025-.155-.08-.211-.098-.013 1.121.79 1.979 1.737 2.178-.002.002-.006.004-.007.006l-.019.013c-.007.002-.014.004-.022.006-.016.004-.038.008-.053.012-.378.076-.509.033-.859.01.03.174.209.477.298.6.124.176.271.33.434.457.411.316.776.43 1.309.471-.072.072-.208.158-.304.221-.321.211-.683.387-1.061.506-.273.086-.564.152-.868.186-.16.018-.337.029-.501.027l-.501-.027c.07.074.537.314.668.377.659.307 1.298.498 2.035.574.071.006.457.025.483.035"/><path fill="#BFD17E" d="M19.522 36.047c-2.745.625-1.777 4.594.852 4.033 2.672-.568 1.783-4.63-.852-4.033m6.363-3.156c-1.672.479-.867 2.771.643 2.318.524-.158 1.005-.754.799-1.48-.147-.521-.756-1.033-1.442-.838zm-.388-.705c-.268.066-.442.209-.647.316-.221-.191-.027-.141-.343-.23-.331.191-.706.754-.728 1.246l.352.189c.012.006.034.018.05.027l-.021.686c-.146.063-.286.109-.371.172-.009.348.193.672.344.889.357.516.322.398.717.133l.627.34c-.098.578-.032.57.675.574h.068c.251 0 .489-.051.677-.121l-.049-.467.609-.314c.28.172.343.457.7-.09.177-.271.384-.578.384-.982l-.394-.119.012-.764.395-.096c-.029-.541-.405-1.092-.689-1.295l-.411.223c-.189-.127-.366-.252-.621-.33l.075-.457c-.354-.139-.666-.158-1.035-.119-.55.058-.483.128-.376.589zm.402 1.412c-.147.09-.203.045-.271.305-.122.475.342.865.789.65.606-.291.191-1.377-.518-.955zm-6.273 3.324c-1.425.377-.975 2.664.62 2.287 1.415-.335.975-2.709-.62-2.287zm-.311 5.514l1.256.004c.742-.119.786-.123.6-.809.236-.117.417-.174.647-.309.262-.154.38-.291.642-.402.479.82 1.002-.135 1.287-.615.938-1.58.198-1.357-.102-1.568l.035-1.369.492-.178c.099-.512-.287-1.186-.536-1.555-.108-.162-.371-.521-.478-.623-.347-.33-.54-.051-.682.188l-1.302-.719c.078-.287.117-.334.056-.633-.469-.178-1.057-.236-1.66-.193-.881.064-1.003.049-.892.834-.214.135-.406.18-.637.318-.238.145-.356.266-.593.375-.463-.525-.704-.451-1.333.645-.116.203-.309.588-.393.85-.204.631.099.492.491.691l-.018 1.426c-.352.061-.574.049-.52.471.062.475.901 1.949 1.292 1.988.269-.033.296-.158.479-.314.172.066.121.061.293.178.279.189.643.406.963.482-.073.301-.129.289-.073.625.232.155.327.173.686.212z"/><path fill="#B0CC49" d="M26.66 54.262c.045.045.158.025.218.025h8.001c.08 0 .13.014.17-.025-.058-.014-1.774-1.18-1.979-1.316l-1.485-.998c-.149-.102-.097-.094-.317-.094h-.815c-.221 0-.172-.012-.322.088l-1.484.998c-.109.07-1.933 1.31-1.987 1.322m2.966-2.769c-.052-.008-.105-.053-.152-.082l-.436-.266c-.197-.119-.383-.232-.576-.352-.083-.051-1.116-.662-1.154-.719-.066-.01-.157-.084-.223-.125-.072-.043-.145-.088-.218-.133-.063-.037-.396-.229-.417-.26-.039.023-.03-.045-.029.174l-.001 4.303c.057-.021.365-.238.443-.291l2.604-1.76c.146-.098.302-.195.439-.297-.066-.073-.227-.116-.28-.192zm.651-4.428c-.191.104-.386.195-.578.297-.096.049-.194.094-.291.146-.081.045-.215.119-.298.145l-1.649.84-.756.389c.062.072 1.308.801 1.34.852.087.033 1.963 1.215 2.166 1.344.076.049.138.031.241.031h.815c.115 0 .155.018.237-.035.532-.346 1.119-.689 1.66-1.037.109-.068.609-.391.686-.418.025-.047 1.102-.666 1.153-.738l-.757-.387c-.106-.035-1.676-.854-1.676-.854-.083-.023-.72-.363-.861-.432-.093-.045-.194-.092-.278-.145-.133-.047-.465-.262-.578-.262-.118.002-.438.213-.576.264zm4.265 2.926c-.033.041-.073.055-.152.105-.737.457-1.501.904-2.233 1.363-.036.023-.038.029-.074.035-.031.043-.235.16-.28.176.029.053 1.646 1.129 1.739 1.191.087.061 1.698 1.158 1.751 1.172l-.002-4.402c-.001-.086.014-.063-.031-.074-.022.029-.302.189-.356.223-.063.037-.318.203-.362.211zm6.126 4.054c-1.301-.006-2.813.387-1.822 1.482.6.662.264.203.548.822.532.049.394-.047.935.115-.17.512-.97 1.994-.327 2.498.716.467 1.663-.393 2.088-.678.335.361.915 1.385 1.593 1.367.89-.021.756-1.463.734-2.195.724.018 1.781-.055 2.029-.545.413-1.018-1.139-1.508-1.683-1.93.649-1.359.092-.713.812-1.148.01-.643-.051-.303-.241-.76-.146-.346-.108-.293-.285-.625-1.056-.145-1.496.404-2.152.803-.104-.303-.174-.268-.253-.479 0 0-.127-.809-.206-.645-.009.02-.048-.025-.061-.031-.146-.049-.012-.018-.187-.051-.253-.047-.076.023-.366-.074-.414-.143-.557-.254-.884.1-.402.437-.314 1.377-.272 1.974m2.411-.587c.251-.217 1.533-1.109 1.83-.445.152.34-.035.113-.072.508-.021.229.25.703-.314 1.371-1.526-.558-.667-.341-1.444-1.434zm-2.195.597c-.054-.803-.094-1.859.831-1.738.119.16.105.26.189.344.3.305.54.047.867.746-.231.25-.52.51-.776.76l-1.111-.112zm.022.203l.927.076c-.112.184-.016.039-.132.18l-.613.766-.182-1.022zm-.22.034c.261 1.027.342 1.127-.007 1.643-.27.398-.245.311-.367.338-.379-.285-.15-.178-.353-.635l-.639-.006c-.207-.377-.626-.729-.037-1.1.388-.244.941-.303 1.403-.24zm2.35 2.83l-.068-.006-.065-.008-.065-.008-.063-.006-.06-.008-.058-.008c-.02-.004-.037-.006-.056-.008-.019-.004-.036-.006-.054-.01-.019-.002-.036-.004-.053-.008-.018-.002-.034-.006-.051-.008-.016-.004-.032-.006-.049-.01-.016-.002-.031-.006-.046-.008-.016-.004-.031-.006-.046-.01-.015-.002-.029-.006-.044-.01-.014-.002-.027-.006-.042-.01-.013-.004-.026-.006-.04-.01-.013-.004-.026-.006-.039-.01s-.024-.008-.037-.012c-.013-.002-.024-.006-.036-.01s-.023-.008-.034-.012c-.012-.004-.022-.008-.033-.012-.011-.004-.021-.008-.032-.012s-.021-.008-.03-.012-.02-.008-.029-.012-.02-.008-.028-.014c-.009-.004-.018-.008-.026-.012-.009-.006-.018-.01-.026-.014-.009-.006-.017-.01-.024-.014-.008-.006-.016-.01-.023-.014-.008-.006-.016-.01-.022-.016-.008-.004-.015-.01-.021-.014-.008-.006-.015-.012-.021-.016-.007-.006-.013-.012-.02-.016-.006-.006-.013-.012-.019-.016-.007-.006-.013-.012-.019-.018s-.012-.012-.017-.016c-.006-.006-.012-.012-.017-.018-.006-.006-.011-.012-.016-.018-.006-.006-.011-.014-.016-.02l-.015-.018s-.009-.014-.014-.02-.009-.014-.014-.02c-.004-.006-.008-.014-.013-.02-.004-.006-.008-.014-.012-.021-.004-.006-.009-.014-.012-.02-.004-.008-.008-.014-.012-.021s-.008-.016-.012-.021c-.003-.008-.007-.016-.011-.023-.003-.008-.007-.016-.01-.023l-.011-.023-.01-.023-.01-.023-.01-.025-.01-.025-.009-.027-.01-.025-.01-.027-.01-.029-.01-.027-.01-.029-.01-.029-.011-.031-.01-.031-.011-.031c-.187-.543-.161-.572.135-.938l.009-.01.01-.012.009-.012.01-.012.009-.012.01-.014.009-.012.01-.014.01-.012.01-.014.01-.014.01-.012.01-.014.01-.014.011-.014.01-.014.01-.014.011-.014.011-.016.01-.014.01-.014.011-.014.011-.014.01-.014.011-.016.011-.014.011-.014.011-.014.01-.014.011-.014.011-.012.011-.014.011-.014.011-.014.011-.012.01-.014.011-.012.011-.012.011-.014.011-.012.011-.01.011-.012.01-.012.011-.01.011-.012.011-.01.01-.01.011-.01.011-.008.01-.01.011-.008.01-.008.011-.008.01-.006.011-.008.01-.006.01-.006c.004-.002.007-.004.01-.004.004-.002.007-.004.01-.006.004-.002.007-.002.01-.004l.01-.004c.004 0 .007-.002.01-.002.004-.002.007-.002.01-.004.003 0 .007-.002.01-.002.134-.023.938.174 1.097.229.402.139.199-.025.361.277.563 1.081.176 1.45-.536 2.224zm1.566-1.932c.514.186 1.338.723 1.454 1.174.193.754-.956.889-1.628.887-.598-1.131-.016-1.614.174-2.061zm-2.896 1.83l1.135.268c-.385.301-.212.387-.657.615l-.478-.883zm2.254-.734l.225.959-.888-.074c.01-.035.211-.34.27-.42.1-.137.047-.059.169-.201.018-.021.067-.082.085-.104.014-.014.033-.039.045-.053.013-.014.037-.043.047-.053.009-.011.031-.037.047-.054zm-3.453.312c.331.121.831.219 1 .477.048.072.43.916.455 1.012-.338.291-1.282.986-1.735.457-.422-.495.144-1.53.28-1.946zm2.272-1.406c.175.188.395.34.304.703-.077.305-.342.467-.688.398-.509-.101-.812-1.132.384-1.101zm-.494 2.865c.276-.205.537-.426.724-.725l1.186.139c.222 2.858-1.519 1.535-1.91.586z"/><path fill="#3C3C3D" d="M25.007 69.127l.293.002-.001.293h-.292v-.295zm1.174.295l.002-.293.586.002-.001.291h-.587zm2.636-.295v.295h-.293l.002-.293.291-.002zm-3.81.295v.295h-.588v-.295h.588zm.294 0h.293l-.002.295h-.291l-.001-.201.001-.094zm.586 0h.294l-.001.295-.292-.002-.001-.293zm3.224 0l.294.002-.001.291h-.293v-.293zm1.175 0l-.002.293-.585.002v-.295h.587zm-5.279.295l.294-.002v.295h-.294v-.293zm1.468-.002h.25l.044.002v.293h-.293l-.001-.068v-.227zm1.167.002l.588-.004v-.291h.294v.873h-.289c-.019-.088.01-.199-.008-.285l-.585-.002v-.291zm-3.223 0l-.003.293-.29-.002-.001-.291h.294zm1.175.293h.294l.003.285h-.297v-.285zm3.811.578l-.003-.293h-.291v-.285h1.175l-.001.285-.292.002-.001.293-.587-.002zm-4.688-.578h.29c0 .066-.009.244.005.285l.582.002-.001.586h-.292l-.001-.293-.881-.002.003-.293h.291l.004-.285zm1.759.578h-.295v-.578h.294l.001.578zm1.755.295h.293l-.002.293-.292.002.001-.295zm2.054.295l-.293-.004v-.291h.294l-.001.295zm-2.055.293h.881v.881h-.881v-.881zm.881 1.174l.294.002v.291h-.294v-.293zm-.299-.881c-.04 0-.268-.01-.283.006s-.006.242-.005.287h.293c0-.062.009-.246-.005-.293zm-5.56 2.055l.008.002 2.041-.002v-2.053l-2.045-.002-.004 2.055zm.581-.586l.881-.002v-.879h-.881v.881zm-.292-1.176l1.467.002v1.467h-1.469l.002-1.469zm5.276-3.81l1.467.002.002-1.469h-1.469v1.467zm.294-1.172l.881-.002v.881h-.881v-.879zm-.587 1.465l2.052.002.004-2.042v-.008h-2.056v2.048zm-4.983-.291l1.467-.002V66.78h-1.469l.002 1.469zm.292-1.176h.881v.881h-.881v-.881zm-.581 1.469h2.047l.002-2.045-2.049-.004v2.049zm4.684-1.469h-.294v.293h.292l.002.588h.294v-1.172l-.294-.002v.293zm-4.684 2.058l.573-.004c.019-.059.006-.221.007-.293h-.58v.297zm2.342 3.807l.291.002.003-.588h-.295l.001.586zm1.75-4.693l-.002.293h-.283v-.291l.285-.002zm-.285.884v-.291c.037 0 .259.01.288-.008l.001-.283h.294v.287h.294l.001.295h-.878zm-.295-1.175l.002.584h-.291l.001-.584h.288zm-.583 3.521c-.011-.014.003-.006-.022-.008h-.563c-.016.037-.015.258-.002.299.067.008.4.002.519.002.012 0 .028.002.039.002.003 0 .013 0 .016-.002.016-.002.01-.002.017-.006l-.004-.287zm-2.641-1.183c.021.012.02.008.063.008h.521l-.001.285c-.065.002-.242-.012-.29.006l-.003.295-.29-.002.001.588h.292l.001-.293h1.175v-.295h.294l-.002.293-.292.002v.293h.292l.002-.293.293-.002c.001-.074-.012-.236.007-.293h.875v1.174h-.293l-.002.588h.294l.001-.588h.293v-1.172l-.293-.002v-.295h.293v-.579h.285l.001-.289c-.042-.012-.229-.006-.285-.004-.002-.066-.011-.24.005-.295h.867v.295h-.294l.001.291.293.002v.285h-.291l-.003.293.293.002.001.293h-.294v.293l-.294.002.001.289.293.004v.287c.055.018.225.004.294.006v-.293h.294l.001.586h-.294l-.001.295-.294-.002v-.586h-.293l-.001 1.174-.582.002.004.586h-.589v-.293h-.291l-.002.584.881.004.001-.295h.579v-.291l.289-.002.005.291.293.002v.293h.588v-.291l-.588-.002v-.881h.588v.293l-.288.002c-.012.033-.011.254-.001.293h.286l.003-.293h.587v.293h-.291l-.002.584.293.004v-.293l.588-.002v.295l.293-.002c0-.068-.01-.24.007-.293h.579l.002.293.294.002v-1.176h-.589l.001.293-.293.002-.001-.586-.293-.002v-.295h.294l-.001-.291-.293-.002v-.586l-.587-.002-.001-.588-.293.002v-.295h.586l.001.293h.294v.295h.293l.001.588h.293l.001.291.293.002-.001.293-.292.002-.001.289.294.004-.001-.295h.295l-.001-.293h-.294v-.586l.294-.002.001-.586-.294-.002v-.291l.289-.002c.012-.043.006-.768.005-.873h-.294l-.001-.295.295.002-.001-.295h-.291l-.003.293h-1.468v-.293h-.292l-.001.293-.294.002v-.879l-.293-.002v.285c-.045.01-.244.008-.295.002v-.287l-.293-.004h-.005c.013-.045.006-.232.004-.291h-.573l.001-.293h.572v-.879l.293-.002.005-.287h-1.17v.287h-.589l.001-.287h-.295l.001.285.293.002.001.293h.293v.293h.295v-.585c.106 0 .508-.014.58.004l-.001.287-.281.004c-.007.012-.006-.004-.009.025-.001.006.001.029.001.039v.076c0 .111.006.363-.003.445h-.286l-.001.293h-.295v-.293h-.293l-.001.291.294.002.001.881h-.295v-.586l-.293.002.003.584h.29v.588h-.293l-.001-.293-.292-.002-.003-.293h-.291v.293h-.294l-.003-.293-.584.002-.001.293-.293-.002-.002.883h-.295l.003.282zm5.865 3.234l.001-.586h.292v.586h-.293z"/><path fill="#7C8C3C" d="M33.321 64.024c-.194-.725-.918-1.023-1.76-.871.173.473 1.099.77.502 1.318-.48.441-.968-.316-1.23-.551-.188.268-.165.662-.038.988.42 1.074 1.356.787 1.683.787.497 0 .495.336.915.43.466-.715.184-.627.008-.961-.198-.372.045-.675-.08-1.14m-1.935 4.871c.611.154.475-.33 1.399-1.254 2.469-2.463 1.187-.93 2.372-1.797.312-.227 2.098-1.885 1.638-2.357-.443-.453-1.495.758-1.672.934-2.006 1.996.209.408-2.486 3.072-.755.748-1.443.795-1.251 1.402zm2.556-1.734c.215.578.883 1.182 1.312 1.547 1.017.869 1.696.49 1.643-.15-.037-.445-1.041-1.377-1.278-1.604-.263-.252-.422-.498-.855-.379-.471.131-.628.308-.822.586zm.13-2.338c.558-.594.528.244.528-1.994 0-.438.004-.875-.001-1.311-.012-1.146-.454-.887 3.674-.887.41 0 .408.082.408.48v4.578c0 .631.01.494-1.308.494-.591 0-1.197-.014-1.786.008.972 1.178.778.133 1.273.582.236.215.045.494.013.713.259.264.261.547.745.547.79 0 1.605.123 1.605-.873v-7.113c0-.676-.315-.871-.931-.871-4.676 0-4.241-.385-4.241 2.344.001.977-.08 2.379.021 3.303z"/><path fill="#B6B8BA" d="M6.122 20.956c-.219.885-1.192 3.971-1.217 4.529.48.322 1.807 1.742 1.971 1.758.549-.141 1.421-1.455 2.023-1.777-.035-.516-.446-1.762-.598-2.289-.221-.76-.455-1.543-.654-2.293-.834.23-.84.036-1.525.072m-.146-2.188c-1.105.486.21 2.613 1.706 1.594.316-.215.738-1.191.239-1.541-.325-.229-1.546-.229-1.945-.053m-2.411 5.027l.822.145c.763-.861 1.104-1.92 1.46-3.07l-2.245 1.938c-.329.321-.172.515-.037.987"/><path fill="#BCD071" d="M53.491 43.083c-.468.072-.857.514-.765 1.072.075.453.511.834 1.063.748.455-.07.836-.51.758-1.055-.066-.461-.511-.849-1.056-.765m.157 6.871c.147-.881.571-1.824.96-2.494.44-.758.927-1.389 1.303-2.141.219-.436.378-.781.355-1.367-.021-.527-.176-.953-.41-1.311-.405-.619-1.136-1.186-2.241-1.189-1.926-.008-3.326 2.08-2.239 3.896.108.18.202.371.312.549.717 1.156 1.374 1.982 1.78 3.387.04.14.131.582.18.67z"/></g><path class="logo-svg-hidden logo-svg-change" d="M75.938 66.409l1.26-.111c.061.506.199.92.416 1.244.219.324.557.584 1.016.785.459.197.975.297 1.549.297.508 0 .959-.074 1.35-.227.389-.152.68-.361.871-.623.189-.266.285-.553.285-.863 0-.316-.092-.592-.275-.828-.184-.238-.486-.438-.908-.596-.271-.107-.871-.271-1.797-.494-.928-.223-1.576-.432-1.947-.629-.482-.252-.842-.566-1.078-.939s-.354-.793-.354-1.256c0-.51.145-.986.434-1.428.289-.445.711-.781 1.266-1.01s1.172-.344 1.852-.344c.748 0 1.406.119 1.979.361s1.01.596 1.318 1.063c.309.469.473.998.496 1.592l-1.281.096c-.068-.639-.301-1.119-.699-1.445-.395-.326-.982-.488-1.758-.488-.807 0-1.395.148-1.764.443-.371.297-.555.652-.555 1.07 0 .361.131.66.391.895.258.234.93.473 2.014.721 1.086.244 1.83.461 2.234.643.588.27 1.02.613 1.301 1.029.279.412.42.895.42 1.434s-.154 1.043-.463 1.518c-.305.477-.748.846-1.324 1.107-.576.266-1.223.398-1.943.398-.914 0-1.678-.135-2.295-.398-.619-.27-1.102-.668-1.453-1.203-.355-.535-.54-1.14-.558-1.814zm14.701.886l1.281.158c-.201.748-.576 1.328-1.121 1.742-.547.412-1.244.619-2.094.619-1.07 0-1.916-.33-2.543-.988s-.939-1.582-.939-2.77c0-1.229.316-2.184.951-2.863.631-.68 1.453-1.02 2.463-1.02.977 0 1.775.334 2.395.998.619.666.93 1.602.93 2.811 0 .07-.002.184-.006.328h-5.453c.047.803.273 1.416.682 1.844.41.428.918.641 1.529.641.455 0 .842-.117 1.164-.357.32-.238.574-.619.761-1.143zm-4.068-2.002h4.084c-.055-.615-.213-1.078-.469-1.385-.395-.477-.906-.715-1.535-.715-.568 0-1.049.191-1.434.572-.388.38-.603.89-.646 1.528zm6.904 4.356V62.34h1.109v1.025c.229-.357.533-.648.916-.863.381-.219.814-.328 1.299-.328.541 0 .986.111 1.332.338.348.225.592.539.734.943.578-.855 1.33-1.281 2.256-1.281.727 0 1.283.201 1.674.604.391.4.584 1.018.584 1.854v5.018h-1.232v-4.604c0-.496-.039-.854-.119-1.072-.08-.215-.227-.391-.438-.523-.211-.135-.459-.201-.744-.201-.514 0-.939.17-1.279.514-.34.34-.51.887-.51 1.641v4.246h-1.238v-4.75c0-.551-.1-.961-.303-1.238-.201-.273-.533-.412-.99-.412-.35 0-.672.092-.969.273-.295.186-.51.455-.643.807-.135.354-.199.865-.199 1.527v3.793h-1.24zm16.512-.902c-.459.391-.9.666-1.324.826-.426.16-.879.242-1.367.242-.803 0-1.42-.195-1.852-.59-.43-.391-.646-.893-.646-1.502 0-.357.082-.686.244-.982s.377-.531.641-.711.561-.314.891-.406c.244-.064.611-.127 1.102-.186 1-.119 1.736-.262 2.211-.428.004-.17.006-.275.006-.322 0-.506-.117-.859-.35-1.068-.318-.279-.789-.418-1.412-.418-.584 0-1.014.102-1.291.305-.277.205-.482.564-.615 1.084l-1.213-.164c.111-.52.293-.939.545-1.258s.617-.563 1.094-.734c.479-.174 1.031-.26 1.658-.26.625 0 1.131.074 1.521.221s.676.332.861.555c.182.221.311.504.385.842.041.213.063.592.063 1.143v1.652c0 1.152.025 1.881.078 2.186.055.305.158.598.314.877h-1.295c-.128-.258-.212-.559-.249-.904zm-.102-2.764c-.451.184-1.125.338-2.025.467-.51.072-.869.154-1.08.246-.211.094-.375.229-.488.402-.115.176-.174.375-.174.59 0 .332.125.607.377.826.248.219.617.332 1.098.332.477 0 .902-.105 1.273-.316.371-.207.645-.494.82-.855.131-.279.199-.693.199-1.238v-.454zm3.172 3.666V62.34h1.115v1.039c.537-.801 1.313-1.205 2.324-1.205.441 0 .848.078 1.217.238.367.156.646.365.828.623.184.256.313.563.385.916.047.229.07.629.07 1.205v4.492h-1.238v-4.447c0-.504-.049-.881-.145-1.131-.098-.25-.268-.451-.514-.6-.244-.148-.533-.223-.863-.223-.527 0-.982.168-1.367.502-.381.336-.572.971-.572 1.908v3.99h-1.24zm12.61-.902c-.459.391-.9.666-1.326.826-.424.16-.879.242-1.365.242-.803 0-1.42-.195-1.852-.59-.432-.391-.646-.893-.646-1.502 0-.357.08-.686.244-.982.162-.297.377-.531.641-.711s.561-.314.891-.406c.244-.064.609-.127 1.102-.186 1-.119 1.736-.262 2.209-.428.004-.17.006-.275.006-.322 0-.506-.117-.859-.352-1.068-.314-.279-.785-.418-1.41-.418-.582 0-1.012.102-1.291.305-.277.205-.482.564-.615 1.084l-1.213-.164c.111-.52.293-.939.545-1.258s.617-.563 1.096-.734c.477-.174 1.029-.26 1.658-.26.623 0 1.131.074 1.521.221.389.146.676.332.859.555.184.221.313.504.385.842.041.213.063.592.063 1.143v1.652c0 1.152.027 1.881.078 2.186.055.305.158.598.314.877h-1.293c-.13-.258-.212-.559-.249-.904zm-.104-2.764c-.449.184-1.123.338-2.023.467-.51.072-.871.154-1.082.246-.209.094-.373.229-.486.402-.117.176-.172.375-.172.59 0 .332.123.607.375.826.248.219.613.332 1.096.332.479 0 .902-.105 1.273-.316.373-.207.646-.494.82-.855.131-.279.199-.693.199-1.238v-.454zm19.708 2.764c-.459.391-.9.666-1.326.826-.424.16-.879.242-1.365.242-.803 0-1.42-.195-1.852-.59-.432-.391-.646-.893-.646-1.502 0-.357.08-.686.244-.982.162-.297.377-.531.641-.711s.561-.314.891-.406c.244-.064.609-.127 1.102-.186 1-.119 1.736-.262 2.209-.428.004-.17.006-.275.006-.322 0-.506-.117-.859-.352-1.068-.314-.279-.785-.418-1.41-.418-.582 0-1.012.102-1.291.305-.277.205-.482.564-.615 1.084l-1.213-.164c.111-.52.293-.939.545-1.258s.617-.563 1.096-.734c.477-.174 1.029-.26 1.658-.26.623 0 1.131.074 1.521.221.389.146.676.332.859.555.184.221.313.504.385.842.041.213.063.592.063 1.143v1.652c0 1.152.027 1.881.078 2.186.055.305.158.598.314.877h-1.293c-.13-.258-.212-.559-.249-.904zm-.104-2.764c-.449.184-1.123.338-2.023.467-.51.072-.871.154-1.082.246-.209.094-.373.229-.486.402-.117.176-.172.375-.172.59 0 .332.123.607.375.826.248.219.613.332 1.096.332.479 0 .902-.105 1.273-.316.373-.207.646-.494.82-.855.131-.279.199-.693.199-1.238v-.454zm-7.772 3.666v-.922c-.465.725-1.146 1.088-2.045 1.088-.584 0-1.119-.16-1.607-.482-.49-.322-.869-.768-1.135-1.346-.27-.574-.404-1.236-.404-1.986 0-.729.121-1.391.365-1.984.244-.596.607-1.051 1.094-1.367s1.031-.475 1.633-.475c.439 0 .83.094 1.176.279.344.186.625.428.84.725v-3.617h1.232V69.65h-1.149zM133.477 66c0 .938.197 1.637.592 2.102.396.463.861.693 1.398.693.541 0 1.002-.221 1.379-.664.379-.441.566-1.117.566-2.025 0-1-.191-1.736-.576-2.203-.387-.469-.861-.701-1.424-.701-.551 0-1.012.225-1.383.676-.366.445-.552 1.156-.552 2.122zm26.125.112l1.336.338c-.281 1.096-.783 1.932-1.512 2.508-.727.576-1.615.865-2.666.865-1.088 0-1.973-.223-2.652-.664-.682-.445-1.201-1.086-1.557-1.926-.354-.84-.533-1.738-.533-2.703 0-1.051.201-1.969.602-2.75.404-.783.975-1.377 1.715-1.783s1.555-.609 2.445-.609c1.01 0 1.861.258 2.547.77.689.516 1.168 1.238 1.441 2.168l-1.318.311c-.234-.734-.574-1.268-1.018-1.604-.445-.334-1.006-.502-1.678-.502-.775 0-1.424.186-1.945.559-.52.369-.887.869-1.098 1.498-.209.623-.314 1.271-.314 1.934 0 .859.125 1.607.375 2.25.248.639.637 1.119 1.164 1.434.527.316 1.1.475 1.715.475.746 0 1.379-.215 1.9-.646.518-.435.867-1.074 1.051-1.923zm2.361-.117c0-1.352.379-2.355 1.129-3.008.629-.541 1.393-.813 2.299-.813 1.006 0 1.826.33 2.463.988.639.658.957 1.568.957 2.729 0 .941-.139 1.68-.422 2.219-.283.541-.693.959-1.232 1.258-.539.297-1.129.447-1.766.447-1.023 0-1.852-.328-2.48-.984-.631-.657-.948-1.602-.948-2.836zm1.272 0c0 .936.207 1.635.615 2.102.408.469.922.699 1.541.699.613 0 1.127-.234 1.535-.703.406-.467.611-1.18.611-2.139 0-.906-.205-1.59-.613-2.055-.412-.465-.922-.697-1.533-.697-.619 0-1.133.23-1.541.695-.408.463-.615 1.162-.615 2.098zm7.029 3.654V62.34h1.107v1.025c.23-.357.535-.648.916-.863.381-.219.813-.328 1.303-.328.539 0 .982.111 1.33.338.348.225.59.539.734.943.576-.855 1.328-1.281 2.256-1.281.725 0 1.281.201 1.672.604.393.4.584 1.018.584 1.854v5.018h-1.23v-4.604c0-.496-.041-.854-.121-1.072-.08-.215-.225-.391-.438-.523-.211-.135-.457-.201-.744-.201-.512 0-.938.17-1.279.514-.338.34-.506.887-.506 1.641v4.246h-1.24v-4.75c0-.551-.104-.961-.305-1.238-.201-.273-.531-.412-.99-.412-.348 0-.67.092-.967.273-.295.186-.512.455-.645.807-.133.354-.197.865-.197 1.527v3.793h-1.24zm11.742 2.801V62.34h1.129v.949c.266-.371.566-.65.9-.836.336-.186.742-.279 1.219-.279.625 0 1.176.16 1.652.482s.836.773 1.082 1.359c.242.586.363 1.227.363 1.924 0 .746-.135 1.42-.404 2.02-.266.6-.658 1.059-1.168 1.375-.512.32-1.051.48-1.615.48-.412 0-.783-.088-1.111-.262s-.596-.395-.809-.66v3.557h-1.238zm1.121-6.414c0 .941.191 1.637.57 2.088.381.447.846.672 1.383.672.553 0 1.025-.23 1.416-.699.391-.467.588-1.186.588-2.162 0-.934-.191-1.631-.572-2.094-.385-.463-.84-.695-1.375-.695-.529 0-.992.248-1.4.742-.406.491-.61 1.208-.61 2.148zm11.508 3.613v-1.072c-.57.826-1.342 1.238-2.318 1.238-.432 0-.836-.084-1.209-.248s-.652-.373-.834-.623c-.18-.25-.307-.557-.381-.918-.049-.244-.074-.629-.074-1.156v-4.53h1.238v4.053c0 .648.023 1.084.074 1.309.08.324.244.582.496.768.252.184.566.277.938.277s.721-.094 1.045-.285c.324-.189.559-.447.691-.777.137-.328.203-.805.203-1.428V62.34h1.24v7.309h-1.109zm5.752-1.107l.182 1.094c-.352.072-.662.111-.938.111-.449 0-.795-.07-1.045-.215-.248-.143-.422-.33-.523-.561s-.15-.719-.15-1.463v-4.205h-.908v-.963h.908v-1.81l1.232-.742v2.553h1.242v.963h-1.242v4.275c0 .352.021.578.066.68.043.102.113.182.211.242.1.059.24.09.424.09.137-.001.319-.016.541-.049zm5.985.205c-.459.391-.9.666-1.326.826-.424.16-.881.242-1.365.242-.801 0-1.42-.195-1.852-.59-.43-.391-.646-.893-.646-1.502 0-.357.08-.686.242-.982s.375-.531.641-.711c.264-.18.561-.314.893-.406.242-.064.609-.127 1.102-.186 1-.119 1.736-.262 2.209-.428.004-.17.006-.275.006-.322 0-.506-.119-.859-.35-1.068-.314-.279-.787-.418-1.41-.418-.586 0-1.014.102-1.291.305-.279.205-.484.564-.617 1.084l-1.211-.164c.109-.52.289-.939.543-1.258.252-.318.619-.563 1.096-.734.477-.174 1.029-.26 1.656-.26s1.131.074 1.523.221c.389.146.676.332.859.555.184.221.313.504.389.842.041.213.061.592.061 1.143v1.652c0 1.152.025 1.881.076 2.186.053.305.158.598.313.877h-1.291c-.131-.258-.215-.559-.25-.904zm-.104-2.764c-.451.184-1.125.338-2.023.467-.512.072-.871.154-1.082.246-.209.094-.373.229-.488.402-.113.176-.17.375-.17.59 0 .332.125.607.375.826s.613.332 1.098.332c.477 0 .898-.105 1.271-.316.371-.207.645-.494.82-.855.133-.279.199-.693.199-1.238v-.454zm7.941.988l1.217.158c-.131.842-.473 1.498-1.018 1.973-.551.477-1.225.713-2.021.713-1 0-1.805-.328-2.416-.98-.605-.656-.908-1.592-.908-2.811 0-.789.133-1.482.393-2.072.26-.592.658-1.037 1.193-1.334.535-.295 1.117-.443 1.744-.443.795 0 1.441.201 1.949.604.504.4.826.969.967 1.711l-1.201.184c-.115-.49-.318-.861-.611-1.107-.291-.248-.641-.371-1.055-.371-.625 0-1.133.223-1.523.67s-.584 1.156-.584 2.125c0 .98.189 1.693.564 2.139.377.447.867.668 1.473.668.488 0 .893-.148 1.219-.447.324-.302.533-.759.618-1.38zm-2.867 3.602l.355-1.219h.924l-.229.736c.391.045.682.166.881.361s.295.41.295.65c0 .344-.162.648-.496.91-.328.266-.826.396-1.492.396-.375 0-.705-.027-.99-.082l.076-.807c.293.02.508.031.646.031.432 0 .734-.063.906-.182.135-.09.201-.203.201-.336 0-.084-.025-.156-.08-.221-.049-.066-.148-.121-.289-.166-.143-.044-.38-.067-.708-.071zm9.916-1.826c-.459.391-.898.666-1.324.826s-.881.242-1.367.242c-.803 0-1.42-.195-1.85-.59-.434-.391-.648-.893-.648-1.502 0-.357.08-.686.244-.982s.377-.531.643-.711c.262-.18.559-.314.889-.406.242-.064.609-.127 1.1-.186 1.002-.119 1.74-.262 2.213-.428.004-.17.004-.275.004-.322 0-.506-.115-.859-.35-1.068-.316-.279-.785-.418-1.41-.418-.586 0-1.014.102-1.291.305-.279.205-.482.564-.615 1.084l-1.211-.164c.107-.52.291-.939.543-1.258s.617-.563 1.094-.734c.479-.174 1.031-.26 1.658-.26.625 0 1.131.074 1.521.221s.676.332.859.555c.186.221.313.504.387.842.041.213.063.592.063 1.143v1.652c0 1.152.025 1.881.078 2.186.055.305.158.598.314.877h-1.295c-.13-.258-.212-.559-.249-.904zm-4.123-7.487c-.004-.479.127-.857.393-1.145.262-.283.596-.424 1.006-.424.281 0 .672.123 1.162.371.271.137.486.205.646.205.146 0 .258-.041.34-.119.076-.08.133-.24.162-.479h.896c-.016.523-.146.914-.396 1.176s-.568.393-.953.393c-.289 0-.67-.129-1.143-.385-.309-.166-.533-.248-.674-.248-.156 0-.283.053-.377.166-.104.109-.152.273-.148.488h-.914zm4.022 4.723c-.451.184-1.127.338-2.027.467-.506.072-.867.154-1.08.246-.211.094-.373.229-.486.402-.115.176-.174.375-.174.59 0 .332.125.607.375.826.252.219.617.332 1.1.332.479 0 .9-.105 1.271-.316.373-.207.645-.494.82-.855.133-.279.201-.693.201-1.238v-.454zm2.711.012c0-1.352.375-2.355 1.129-3.008.629-.541 1.393-.813 2.297-.813 1.006 0 1.826.33 2.467.988.637.658.953 1.568.953 2.729 0 .941-.139 1.68-.422 2.219-.281.541-.693.959-1.232 1.258-.539.297-1.125.447-1.766.447-1.021 0-1.85-.328-2.48-.984s-.946-1.602-.946-2.836zm1.271 0c0 .936.205 1.635.613 2.102.408.469.922.699 1.541.699.617 0 1.127-.234 1.537-.703.408-.467.613-1.18.613-2.139 0-.906-.207-1.59-.619-2.055-.408-.465-.918-.697-1.531-.697-.619 0-1.133.23-1.541.695-.408.463-.613 1.162-.613 2.098zm10.463.627v-1.246h3.805v1.246h-3.805zm15.873-7.061h1.334v5.828c0 1.014-.115 1.818-.344 2.416-.23.598-.645 1.082-1.242 1.455-.6.373-1.385.563-2.359.563-.945 0-1.717-.164-2.316-.49-.604-.324-1.033-.797-1.289-1.414-.258-.617-.387-1.461-.387-2.529v-5.828h1.338v5.822c0 .877.08 1.521.24 1.938.166.414.447.734.842.959.398.225.883.338 1.457.338.982 0 1.68-.223 2.1-.668.416-.445.627-1.301.627-2.566v-5.824zm3.625 10.088V59.561h6.807v1.188h-5.475v3.129h4.738v1.188h-4.738v4.584H255.1zm8.486 0V59.561h3.787c.77 0 1.387.102 1.854.307.465.203.83.516 1.094.941.264.424.395.867.395 1.33 0 .434-.115.84-.35 1.221-.232.381-.586.686-1.059.922.609.178 1.078.484 1.406.914.328.432.492.941.492 1.529 0 .471-.102.91-.301 1.316-.197.406-.443.721-.74.939-.291.221-.66.389-1.104.5s-.986.168-1.627.168h-3.847zm1.334-5.852h2.184c.59 0 1.016-.037 1.273-.113.338-.102.594-.271.768-.506.17-.234.256-.525.256-.877 0-.338-.076-.631-.24-.887-.16-.254-.389-.43-.688-.523-.301-.094-.811-.143-1.535-.143h-2.018v3.049zm0 4.661h2.514c.432 0 .734-.014.908-.049.307-.053.566-.145.771-.273s.375-.316.508-.561c.135-.246.201-.529.201-.85 0-.377-.098-.705-.291-.982-.189-.277-.457-.473-.799-.584-.344-.113-.836-.17-1.479-.17h-2.334v3.469zm7.016 1.191l3.875-10.088h1.439l4.129 10.088h-1.521l-1.178-3.055h-4.219l-1.107 3.055h-1.418zm2.912-4.141h3.42l-1.053-2.797c-.32-.85-.561-1.545-.719-2.092-.127.646-.309 1.289-.541 1.928l-1.107 2.961z" fill="#6C6D70"/><path class="logo-svg-change logo-svg-title" d="M195.691 53.086V21.655h7.116c2.656 0 4.585.721 5.779 2.152 1.195 1.432 1.797 3.746 1.797 6.938 0 2.969-.58 5.305-1.745 7.012-1.157 1.699-2.745 2.553-4.763 2.553h-3.332v12.777h-4.852zm4.852-17.273h1.914c1.136 0 1.915-.342 2.338-1.031.43-.691.646-2.012.646-3.947 0-1.789-.223-3.006-.676-3.658-.452-.654-1.276-.98-2.479-.98h-1.743v9.616zM170.76 53.086V21.655h6.455l3.161 17.408c.126.697.222 1.445.289 2.24.066.801.104 1.625.104 2.479 0-.721.037-1.469.119-2.24.074-.766.192-1.574.334-2.434l3.027-17.453h6.544v31.432h-4.541V33.239c0-.564.03-1.322.097-2.279s.156-2.025.274-3.197c-.074.422-.171 1.002-.282 1.744-.237 1.402-.393 2.307-.481 2.715l-3.963 20.865h-2.419L175.694 32.2c-.148-.84-.304-1.76-.467-2.762-.171-1-.268-1.557-.297-1.676.104 1.076.178 2.078.237 3.012.06.936.089 1.76.089 2.465v19.848h-4.496zm-19.314-24.173c0-2.471.675-4.416 2.019-5.818 1.35-1.402 3.212-2.107 5.595-2.107 2.24 0 4.021.721 5.334 2.16 1.313 1.439 1.967 3.406 1.967 5.898v16.109c0 2.752-.646 4.867-1.944 6.357-1.298 1.492-3.146 2.242-5.535 2.242-2.419 0-4.267-.742-5.535-2.227s-1.899-3.65-1.899-6.508V28.913zm9.928 17.244V28.608c0-1.084-.207-1.9-.631-2.441-.415-.541-1.038-.816-1.862-.816-.823 0-1.446.275-1.862.816-.423.541-.631 1.357-.631 2.441v17.549c0 1.082.208 1.898.631 2.455.416.549 1.039.824 1.862.824.824 0 1.447-.275 1.862-.824.424-.557.631-1.373.631-2.455zM132.97 45.02V28.918c0-2.477.675-4.422 2.019-5.824 1.35-1.402 3.212-2.107 5.595-2.107 2.24 0 4.021.721 5.334 2.16 1.313 1.447 1.967 3.412 1.967 5.898v3.027h-4.986v-3.457c0-1.092-.208-1.908-.631-2.449-.415-.541-1.038-.816-1.862-.816-.823 0-1.447.275-1.862.816-.423.541-.631 1.357-.631 2.449v17.533c0 1.09.208 1.906.631 2.463.415.549 1.039.824 1.862.824.824 0 1.447-.275 1.862-.824.423-.557.631-1.373.631-2.463v-4.281h4.986v3.287c0 2.744-.646 4.867-1.944 6.357-1.298 1.492-3.146 2.242-5.535 2.242-2.448 0-4.304-.742-5.558-2.219s-1.878-3.649-1.878-6.514zm-24.396 8.066V21.655h6.455l3.161 17.408c.126.697.223 1.445.289 2.24.066.801.104 1.625.104 2.479 0-.721.037-1.469.119-2.24.074-.766.193-1.574.334-2.434l3.027-17.453h6.544v31.432h-4.541V33.239c0-.564.03-1.322.097-2.279s.156-2.025.274-3.197c-.074.422-.171 1.002-.282 1.744-.237 1.402-.393 2.307-.481 2.715l-3.963 20.865h-2.419L113.507 32.2c-.148-.84-.304-1.76-.467-2.762-.171-1-.268-1.557-.297-1.676.104 1.076.178 2.078.237 3.012.06.936.089 1.76.089 2.465v19.848h-4.495zm-16.391 0V21.655h12.644v4.541h-7.791v8.236h5.616v4.541h-5.616v9.395h7.791v4.719H92.183zm-18.929-7.984l4.623-.689c.089 1.587.393 2.767.913 3.523.52.766 1.291 1.143 2.308 1.143.883 0 1.596-.281 2.152-.838.549-.557.823-1.291.823-2.203 0-1.641-1.306-3.756-3.91-6.352-.2-.201-.349-.357-.453-.453-2.552-2.553-4.191-4.512-4.919-5.885-.728-1.365-1.091-2.818-1.091-4.355 0-2.219.728-4.088 2.189-5.602 1.454-1.514 3.234-2.27 5.334-2.27 2.049 0 3.718.697 5.023 2.1 1.307 1.402 2.056 3.301 2.241 5.697l-4.741.676c-.082-1.402-.334-2.412-.75-3.02-.408-.609-1.046-.912-1.899-.912-.786 0-1.409.266-1.885.793-.467.527-.704 1.232-.704 2.115 0 1.824 1.521 4.207 4.57 7.152.119.111.208.207.282.281 2.233 2.176 3.694 3.949 4.385 5.32.697 1.381 1.046 2.924 1.046 4.631 0 2.285-.712 4.17-2.129 5.639-1.418 1.469-3.213 2.205-5.387 2.205-2.404 0-4.318-.773-5.729-2.309s-2.172-3.664-2.292-6.387z"/><path class="logo-svg-title" fill="#AAC44E" d="M221.647 53.168v-4.572c3.355-4.625 5.854-8.557 7.498-11.795 1.641-3.24 2.459-5.85 2.459-7.836 0-1.182-.195-2.113-.592-2.789-.395-.68-.926-1.018-1.596-1.018-.893 0-1.531.328-1.928.984-.391.656-.604 1.787-.631 3.393l-.045 1.182h-4.752v-.59c0-2.934.648-5.205 1.938-6.818 1.293-1.611 3.111-2.418 5.459-2.418 2.031 0 3.648.684 4.859 2.047 1.213 1.361 1.818 3.213 1.818 5.547 0 2.291-.615 4.834-1.852 7.625-1.234 2.795-3.691 6.955-7.385 12.486h8.84v4.572h-14.09zm18.297-24.332c0-2.498.652-4.451 1.957-5.865 1.309-1.416 3.117-2.123 5.439-2.123 2.201 0 3.951.729 5.242 2.188s1.934 3.436 1.934 5.93v16.217c0 2.773-.635 4.91-1.902 6.412-1.27 1.502-3.072 2.254-5.404 2.254-2.363 0-4.166-.752-5.406-2.254-1.238-1.502-1.859-3.684-1.859-6.543V28.836zm4.531 17.571c0 .891.244 1.605.74 2.145.496.541 1.152.811 1.977.811.777 0 1.391-.262 1.848-.787s.693-1.248.709-2.168V27.893c0-.744-.242-1.35-.73-1.816-.486-.467-1.127-.699-1.918-.699-.76 0-1.389.232-1.885.699s-.74 1.059-.74 1.773v18.557zm11.686-17.791V25.42c1.256-.436 2.328-.977 3.217-1.619.891-.641 1.627-1.402 2.211-2.275h3.262v31.643h-4.838V28.616h-3.852zm14.207 15.242h4.256v1.563c0 1.17.209 2.047.621 2.631.414.584 1.033.877 1.859.877.701 0 1.24-.264 1.625-.791s.578-1.283.578-2.268v-7.891c0-.885-.16-1.531-.48-1.936-.32-.408-.832-.611-1.531-.611-.611 0-1.141.215-1.592.643-.449.428-.795 1.049-1.037 1.861l-3.912-.172.535-16.211h11.654l.17 4.469h-8.061l-.387 7.273c.686-.672 1.387-1.174 2.107-1.508.719-.336 1.443-.504 2.17-.504 1.498 0 2.656.563 3.477 1.689s1.229 2.738 1.229 4.834v7.848c0 2.311-.611 4.137-1.838 5.477s-2.895 2.01-5.004 2.01c-2.113 0-3.711-.709-4.805-2.127-1.09-1.42-1.635-3.498-1.635-6.236v-.92z"/></svg>
